<svg xmlns="http://www.w3.org/2000/svg" width="725.8900756835938" height="733.81494140625" viewBox="-358.00018310546875 -375.9822082519531 725.8900756835938 733.81494140625"><title>Neo4j Graph Visualization</title><desc>Created using Neo4j (http://www.neo4j.com/)</desc><g class="layer relationships"><g class="relationship" transform="translate(34.48997888740675 228.7620775898801) rotate(405.01067254308003)"><path class="outline" fill="#A5ABB6" stroke="none" d="M 21.40063509461097,12.933012701892217 L 21.90063509461097,12.06698729810778 A 94.87379061253547 94.87379061253547 0 0 0 41.73760331886944,20.674355194982525 L 41.446691288225196,21.63110500053591 A 95.87379061253547 95.87379061253547 0 0 1 21.40063509461097,12.933012701892217 Z M 92.84797872238329,22.850324358860277 L 92.60275582912647,21.880857632962602 A 94.87379061253547 94.87379061253547 0 0 0 112.82551273245623,14.223691468433069 L 111.45038113760357,11.557418208461765 L 119.27600560486471,11.459429957105428 L 114.6590215255931,17.77872248172814 L 113.28388993074044,15.112449221756835 A 95.87379061253547 95.87379061253547 0 0 1 92.84797872238329,22.850324358860277"/><text text-anchor="middle" pointer-events="none" font-size="8px" fill="#000000" x="67.0759357953459" y="28.250846768385088" font-family="sans-serif">PRODUCED</text></g><g class="relationship" transform="translate(34.48997888740675 228.7620775898801) rotate(405.01067254308003)"><path class="outline" fill="#A5ABB6" stroke="none" d="M 25 0.5 L 43.80216221897943 0.5 L 43.80216221897943 -0.5 L 25 -0.5 Z M 90.69278721897943 0.5 L 109.49494943795887 0.5 L 109.49494943795887 3.5 L 116.49494943795887 0 L 109.49494943795887 -3.5 L 109.49494943795887 -0.5 L 90.69278721897943 -0.5 Z"/><text text-anchor="middle" pointer-events="none" font-size="8px" fill="#000000" x="67.24747471897943" y="3" font-family="sans-serif">DIRECTED</text></g><g class="relationship" transform="translate(34.48997888740675 228.7620775898801) rotate(405.01067254308003)"><path class="outline" fill="#A5ABB6" stroke="none" d="M 21.40063509461097,-12.933012701892217 L 21.90063509461097,-12.06698729810778 A 94.87379061253547 94.87379061253547 0 0 1 49.44338824142733,-22.668411086820583 L 49.233697640566874,-23.646178877203752 A 95.87379061253547 95.87379061253547 0 0 0 21.40063509461097,-12.933012701892217 Z M 84.97418985666769,-24.49393001654495 L 84.81109356772484,-23.50731986023544 A 94.87379061253547 94.87379061253547 0 0 1 112.82551273245623,-14.223691468433069 L 111.45038113760357,-11.557418208461765 L 119.27600560486471,-11.459429957105428 L 114.6590215255931,-17.77872248172814 L 113.28388993074044,-15.112449221756835 A 95.87379061253547 95.87379061253547 0 0 0 84.97418985666769,-24.49393001654495"/><text text-anchor="middle" pointer-events="none" font-size="8px" fill="#000000" x="67.07593579534587" y="-22.250846768385088" font-family="sans-serif">WROTE</text></g><g class="relationship" transform="translate(202.16453070334813 118.0990973651978) rotate(343.4968340008463)"><path class="outline" fill="#A5ABB6" stroke="none" d="M 24.018736134675446,6.953439040707552 L 24.277555179777966,5.987513214418485 A 176.27520279226448 176.27520279226448 0 0 0 49.96943504597243,10.863489399096068 L 49.85636469075497,11.857076383094466 A 177.27520279226448 177.27520279226448 0 0 1 24.018736134675446,6.953439040707552 Z M 85.66716798421466,12.291456552809308 L 85.57823150074627,11.295419253352975 A 176.27520279226448 176.27520279226448 0 0 0 111.3808246547444,7.044064017459696 L 110.67488492262163,4.128305266360689 L 118.30191836266255,5.882831101023068 L 112.3220776309081,10.93174235225837 L 111.61613789878533,8.015983601159364 A 177.27520279226448 177.27520279226448 0 0 1 85.66716798421466,12.291456552809308"/><text text-anchor="middle" pointer-events="none" font-size="8px" fill="#000000" x="67.75683342173453" y="15.480941744387053" font-family="sans-serif">WROTE</text></g><g class="relationship" transform="translate(202.16453070334813 118.0990973651978) rotate(343.4968340008463)"><path class="outline" fill="#A5ABB6" stroke="none" d="M 24.018736134675446,-6.953439040707552 L 24.277555179777966,-5.987513214418485 A 176.27520279226448 176.27520279226448 0 0 1 44.472870386638306,-10.15027803416146 L 44.328618307773574,-11.139819007412797 A 177.27520279226448 177.27520279226448 0 0 0 24.018736134675446,-6.953439040707552 Z M 91.21068588092959,-11.708492105922431 L 91.09047870754293,-10.715743277937037 A 176.27520279226448 176.27520279226448 0 0 1 111.3808246547444,-7.044064017459696 L 110.67488492262163,-4.128305266360689 L 118.30191836266255,-5.882831101023068 L 112.3220776309081,-10.93174235225837 L 111.61613789878533,-8.015983601159364 A 177.27520279226448 177.27520279226448 0 0 0 91.21068588092959,-11.708492105922431"/><text text-anchor="middle" pointer-events="none" font-size="8px" fill="#000000" x="67.7568334217345" y="-9.480941744387053" font-family="sans-serif">DIRECTED</text></g><g class="relationship" transform="translate(264.2793330140363 -44.17390203443331) rotate(418.5024118716015)"><path class="outline" fill="#A5ABB6" stroke="none" d="M 24.018736134675446,6.953439040707552 L 24.277555179777966,5.987513214418485 A 176.68024225596125 176.68024225596125 0 0 0 50.072002330068194,10.879641889858533 L 49.95917837089566,11.873256882819419 A 177.68024225596125 177.68024225596125 0 0 1 24.018736134675446,6.953439040707552 Z M 85.77003725456993,12.307040510900805 L 85.68131455650588,11.310984145604039 A 176.68024225596125 176.68024225596125 0 0 0 111.58669436583399,7.045105138807004 L 110.88065739646001,4.129369931714766 L 118.50774934394487,5.883641411449773 L 112.52807699166596,10.932752081596654 L 111.82204002229197,8.017016874504415 A 177.68024225596125 177.68024225596125 0 0 1 85.77003725456993,12.307040510900805"/><text text-anchor="middle" pointer-events="none" font-size="8px" fill="#000000" x="67.85970681187673" y="15.494749144372122" font-family="sans-serif">WROTE</text></g><g class="relationship" transform="translate(264.2793330140363 -44.17390203443331) rotate(418.5024118716015)"><path class="outline" fill="#A5ABB6" stroke="none" d="M 24.018736134675446,-6.953439040707552 L 24.277555179777966,-5.987513214418485 A 176.68024225596125 176.68024225596125 0 0 1 44.57519871750663,-10.16798641373137 L 44.43126316632825,-11.15757347766609 A 177.68024225596125 177.68024225596125 0 0 0 24.018736134675446,-6.953439040707552 Z M 91.31366635296672,-11.725468791585712 L 91.19374362372301,-10.732685562974979 A 176.68024225596125 176.68024225596125 0 0 1 111.58669436583399,-7.045105138807004 L 110.88065739646001,-4.129369931714766 L 118.50774934394487,-5.883641411449773 L 112.52807699166596,-10.932752081596654 L 111.82204002229197,-8.017016874504415 A 177.68024225596125 177.68024225596125 0 0 0 91.31366635296672,-11.725468791585712"/><text text-anchor="middle" pointer-events="none" font-size="8px" fill="#000000" x="67.8597068118767" y="-9.494749144372122" font-family="sans-serif">DIRECTED</text></g><g class="relationship" transform="translate(227.56428808202335 -242.57981541269302) rotate(514.1978558818068)"><path class="outline" fill="#A5ABB6" stroke="none" d="M 21.40063509461097,12.933012701892217 L 21.90063509461097,12.06698729810778 A 96.00855503321904 96.00855503321904 0 0 0 42.284524019904666,20.870891010359728 L 41.996837275928996,21.82861557271609 A 97.00855503321904 97.00855503321904 0 0 1 21.40063509461097,12.933012701892217 Z M 93.41002075800213,23.03898940380357 L 93.16772142534295,22.06878786113684 A 96.00855503321904 96.00855503321904 0 0 0 113.94332312486671,14.233864612242893 L 112.56724542538225,11.568079518695109 L 120.39283462639229,11.467314162370464 L 115.77809339084598,17.788244736973272 L 114.40201569136153,15.12245964342549 A 97.00855503321904 97.00855503321904 0 0 1 93.41002075800213,23.03898940380357"/><text text-anchor="middle" pointer-events="none" font-size="8px" fill="#000000" x="67.63352879821932" y="28.40296183352538" transform="rotate(180 67.63352879821932 25.40296183352538)" font-family="sans-serif">PRODUCED</text></g><g class="relationship" transform="translate(227.56428808202335 -242.57981541269302) rotate(514.1978558818068)"><path class="outline" fill="#A5ABB6" stroke="none" d="M 25 0.5 L 49.91713645297858 0.5 L 49.91713645297858 -0.5 L 25 -0.5 Z M 85.69057395297858 0.5 L 110.60771040595716 0.5 L 110.60771040595716 3.5 L 117.60771040595716 0 L 110.60771040595716 -3.5 L 110.60771040595716 -0.5 L 85.69057395297858 -0.5 Z"/><text text-anchor="middle" pointer-events="none" font-size="8px" fill="#000000" x="67.80385520297858" y="3" transform="rotate(180 67.80385520297858 0)" font-family="sans-serif">WROTE</text></g><g class="relationship" transform="translate(227.56428808202335 -242.57981541269302) rotate(514.1978558818068)"><path class="outline" fill="#A5ABB6" stroke="none" d="M 21.40063509461097,-12.933012701892217 L 21.90063509461097,-12.06698729810778 A 96.00855503321904 96.00855503321904 0 0 1 44.62294298766725,-21.541141016511887 L 44.35961260409044,-22.505846727641085 A 97.00855503321904 97.00855503321904 0 0 0 21.40063509461097,-12.933012701892217 Z M 91.01799380947017,-23.60428257205028 L 90.80035237371206,-22.62825377870392 A 96.00855503321904 96.00855503321904 0 0 1 113.94332312486671,-14.233864612242893 L 112.56724542538225,-11.568079518695109 L 120.39283462639229,-11.467314162370464 L 115.77809339084598,-17.788244736973272 L 114.40201569136153,-15.12245964342549 A 97.00855503321904 97.00855503321904 0 0 0 91.01799380947017,-23.60428257205028"/><text text-anchor="middle" pointer-events="none" font-size="8px" fill="#000000" x="67.6335287982193" y="-22.40296183352538" transform="rotate(180 67.6335287982193 -25.40296183352538)" font-family="sans-serif">DIRECTED</text></g><g class="relationship" transform="translate(-17.54454399904755 -346.9822052018507) rotate(497.32468796016747)"><path class="outline" fill="#A5ABB6" stroke="none" d="M 21.40063509461097,12.933012701892217 L 21.90063509461097,12.06698729810778 A 95.12429268283692 95.12429268283692 0 0 0 44.19491577381035,21.393890650795996 L 43.9292857759457,22.357965701937985 A 96.12429268283692 96.12429268283692 0 0 1 21.40063509461097,12.933012701892217 Z M 90.5811779099356,23.46269230772367 L 90.36147906082589,22.487124567533442 A 95.12429268283692 95.12429268283692 0 0 0 113.07224911346181,14.225950270279741 L 111.69690744896707,11.559785364294957 L 119.52252417150875,11.461180537456155 L 114.90603799945478,17.780836811592785 L 113.53069633496004,15.114671905608 A 96.12429268283692 96.12429268283692 0 0 1 90.5811779099356,23.46269230772367"/><text text-anchor="middle" pointer-events="none" font-size="8px" fill="#000000" x="67.19901271559074" y="28.284426497603974" transform="rotate(180 67.19901271559074 25.284426497603974)" font-family="sans-serif">DIRECTED</text></g><g class="relationship" transform="translate(-17.54454399904755 -346.9822052018507) rotate(497.32468796016747)"><path class="outline" fill="#A5ABB6" stroke="none" d="M 25 0.5 L 41.47965752735767 0.5 L 41.47965752735767 -0.5 L 25 -0.5 Z M 93.26090752735767 0.5 L 109.74056505471535 0.5 L 109.74056505471535 3.5 L 116.74056505471535 0 L 109.74056505471535 -3.5 L 109.74056505471535 -0.5 L 93.26090752735767 -0.5 Z"/><text text-anchor="middle" pointer-events="none" font-size="8px" fill="#000000" x="67.37028252735767" y="3" transform="rotate(180 67.37028252735767 0)" font-family="sans-serif">PRODUCED</text></g><g class="relationship" transform="translate(-17.54454399904755 -346.9822052018507) rotate(497.32468796016747)"><path class="outline" fill="#A5ABB6" stroke="none" d="M 21.40063509461097,-12.933012701892217 L 21.90063509461097,-12.06698729810778 A 95.12429268283692 95.12429268283692 0 0 1 49.56547356787724,-22.706975233506114 L 49.35630189041212,-23.68485416739641 A 96.12429268283692 96.12429268283692 0 0 0 21.40063509461097,-12.933012701892217 Z M 85.09743803232269,-24.531211779292917 L 84.93478761212268,-23.544528020022113 A 95.12429268283692 95.12429268283692 0 0 1 113.07224911346181,-14.225950270279741 L 111.69690744896707,-11.559785364294957 L 119.52252417150875,-11.461180537456155 L 114.90603799945478,-17.780836811592785 L 113.53069633496004,-15.114671905608 A 96.12429268283692 96.12429268283692 0 0 0 85.09743803232269,-24.531211779292917"/><text text-anchor="middle" pointer-events="none" font-size="8px" fill="#000000" x="67.19901271559074" y="-22.284426497603974" transform="rotate(180 67.19901271559074 -25.284426497603974)" font-family="sans-serif">WROTE</text></g><g class="relationship" transform="translate(-265.347773742809 -145.68221253883988) rotate(476.6986422629189)"><path class="outline" fill="#A5ABB6" stroke="none" d="M 24.018736134675446,-6.953439040707552 L 24.277555179777966,-5.987513214418485 A 174.4449739633475 174.4449739633475 0 0 1 44.010596014712945,-10.070046298585538 L 43.864895968608245,-11.059375109732315 A 175.4449739633475 175.4449739633475 0 0 0 24.018736134675446,-6.953439040707552 Z M 90.74540932069016,-11.631588597897604 L 90.62390015416801,-10.638998288428922 A 174.4449739633475 174.4449739633475 0 0 1 110.45070836127991,-7.039324234444344 L 109.7452113097112,-4.123458340712629 L 117.37197828858203,-5.879142096405962 L 111.39137109670487,-10.92714542608663 L 110.68587404513616,-8.011279532354916 A 175.4449739633475 175.4449739633475 0 0 0 90.74540932069016,-11.631588597897604"/><text text-anchor="middle" pointer-events="none" font-size="8px" fill="#000000" x="67.29205498969243" y="-9.418551260218294" transform="rotate(180 67.29205498969243 -12.418551260218294)" font-family="sans-serif">DIRECTED</text></g><g class="relationship" transform="translate(-265.347773742809 -145.68221253883988) rotate(476.6986422629189)"><path class="outline" fill="#A5ABB6" stroke="none" d="M 24.018736134675446,6.953439040707552 L 24.277555179777966,5.987513214418485 A 174.4449739633475 174.4449739633475 0 0 0 49.50606177187416,10.790374803527186 L 49.39186430009021,11.783832873824139 A 175.4449739633475 175.4449739633475 0 0 1 24.018736134675446,6.953439040707552 Z M 85.20240505491027,12.220928651434491 L 85.1124898642118,11.224979225769886 A 174.4449739633475 174.4449739633475 0 0 0 110.45070836127991,7.039324234444344 L 109.7452113097112,4.123458340712629 L 117.37197828858203,5.879142096405962 L 111.39137109670487,10.92714542608663 L 110.68587404513616,8.011279532354916 A 175.4449739633475 175.4449739633475 0 0 1 85.20240505491027,12.220928651434491"/><text text-anchor="middle" pointer-events="none" font-size="8px" fill="#000000" x="67.29205498969247" y="15.418551260218294" transform="rotate(180 67.29205498969247 12.418551260218294)" font-family="sans-serif">WROTE</text></g><g class="relationship" transform="translate(-309.0108259195886 121.65618588677447) rotate(261.9181491681226)"><path class="outline" fill="#A5ABB6" stroke="none" d="M 24.018736134675446,-6.953439040707552 L 24.277555179777966,-5.987513214418485 A 175.4565829635417 175.4565829635417 0 0 1 49.76216003786362,-10.830812829883826 L 49.64858834927311,-11.824342633941399 A 176.4565829635417 176.4565829635417 0 0 0 24.018736134675446,-6.953439040707552 Z M 85.45927653922553,-12.259933359171157 L 85.36990488850547,-11.263935011759088 A 175.4565829635417 175.4565829635417 0 0 1 110.96477719975057,-7.041951199735516 L 110.25903479789994,-4.126144679708832 L 117.88594948012127,-5.881186682088516 L 111.90576706888473,-10.92969322643776 L 111.2000246670341,-8.013886706411077 A 176.4565829635417 176.4565829635417 0 0 0 85.45927653922553,-12.259933359171157"/><text text-anchor="middle" pointer-events="none" font-size="8px" fill="#000000" x="67.54893440308649" y="-9.453035849232805" transform="rotate(180 67.54893440308649 -12.453035849232805)" font-family="sans-serif">WROTE</text></g><g class="relationship" transform="translate(-309.0108259195886 121.65618588677447) rotate(261.9181491681226)"><path class="outline" fill="#A5ABB6" stroke="none" d="M 24.018736134675446,6.953439040707552 L 24.277555179777966,5.987513214418485 A 175.4565829635417 175.4565829635417 0 0 0 44.2660829803777,10.114435784758456 L 44.121186864030456,11.103882658252672 A 176.4565829635417 176.4565829635417 0 0 1 24.018736134675446,6.953439040707552 Z M 91.00256698005782,11.674134038404588 L 90.88178085701978,10.68145548394628 A 175.4565829635417 175.4565829635417 0 0 0 110.96477719975057,7.041951199735516 L 110.25903479789994,4.126144679708832 L 117.88594948012127,5.881186682088516 L 111.90576706888473,10.92969322643776 L 111.2000246670341,8.013886706411077 A 176.4565829635417 176.4565829635417 0 0 1 91.00256698005782,11.674134038404588"/><text text-anchor="middle" pointer-events="none" font-size="8px" fill="#000000" x="67.54893440308653" y="15.453035849232805" transform="rotate(180 67.54893440308653 12.453035849232805)" font-family="sans-serif">DIRECTED</text></g><g class="relationship" transform="translate(-91.06951992117091 99.47628216443066) rotate(472.2818839197439)"><path class="outline" fill="#A5ABB6" stroke="none" d="M 21.40063509461097,12.933012701892217 L 21.90063509461097,12.06698729810778 A 97.79412255887361 97.79412255887361 0 0 0 43.146091117592064,21.17819965604049 L 42.86333787503591,22.13739233940707 A 98.79412255887361 98.79412255887361 0 0 1 21.40063509461097,12.933012701892217 Z M 94.29434752901167,23.33408646544075 L 94.05651302482889,22.362780772767152 A 97.79412255887361 97.79412255887361 0 0 0 115.7027460508191,14.24957006181544 L 114.32520775398318,11.584539435208985 L 122.15074056237347,11.479485806966032 L 117.53946377993366,17.802944230624046 L 116.16192548309773,15.13791360401759 A 98.79412255887361 98.79412255887361 0 0 1 94.29434752901167,23.33408646544075"/><text text-anchor="middle" pointer-events="none" font-size="8px" fill="#000000" x="68.51121257654546" y="28.64231808506885" transform="rotate(180 68.51121257654546 25.64231808506885)" font-family="sans-serif">PRODUCED</text></g><g class="relationship" transform="translate(-91.06951992117091 99.47628216443066) rotate(472.2818839197439)"><path class="outline" fill="#A5ABB6" stroke="none" d="M 25 0.5 L 45.234352058713654 0.5 L 45.234352058713654 -0.5 L 25 -0.5 Z M 92.12497705871365 0.5 L 112.35932911742731 0.5 L 112.35932911742731 3.5 L 119.35932911742731 0 L 112.35932911742731 -3.5 L 112.35932911742731 -0.5 L 92.12497705871365 -0.5 Z"/><text text-anchor="middle" pointer-events="none" font-size="8px" fill="#000000" x="68.67966455871365" y="3" transform="rotate(180 68.67966455871365 0)" font-family="sans-serif">DIRECTED</text></g><g class="relationship" transform="translate(-91.06951992117091 99.47628216443066) rotate(472.2818839197439)"><path class="outline" fill="#A5ABB6" stroke="none" d="M 21.40063509461097,-12.933012701892217 L 21.90063509461097,-12.06698729810778 A 97.79412255887361 97.79412255887361 0 0 1 50.86751055217516,-23.116518835448986 L 50.66371317355586,-24.095531924466655 A 98.79412255887361 98.79412255887361 0 0 0 21.40063509461097,-12.933012701892217 Z M 86.41133938928773,-24.92730587951492 L 86.25329716358816,-23.93987352492249 A 97.79412255887361 97.79412255887361 0 0 1 115.7027460508191,-14.24957006181544 L 114.32520775398318,-11.584539435208985 L 122.15074056237347,-11.479485806966032 L 117.53946377993366,-17.802944230624046 L 116.16192548309773,-15.13791360401759 A 98.79412255887361 98.79412255887361 0 0 0 86.41133938928773,-24.92730587951492"/><text text-anchor="middle" pointer-events="none" font-size="8px" fill="#000000" x="68.51121257654547" y="-22.64231808506885" transform="rotate(180 68.51121257654547 -25.64231808506885)" font-family="sans-serif">WROTE</text></g></g><g class="layer nodes"><g class="node" aria-label="graph-node45" transform="translate(34.48997888740675,228.7620775898801)"><circle class="outline" cx="0" cy="0" r="25" fill="#F79767" stroke="#f36924" stroke-width="2px"/><text class="caption" text-anchor="middle" pointer-events="none" x="0" y="0" font-size="10px" fill="#FFFFFF" font-family="sans-serif"> Cameron</text><text class="caption" text-anchor="middle" pointer-events="none" x="0" y="10" font-size="10px" fill="#FFFFFF" font-family="sans-serif"> Crowe</text></g><g class="node" aria-label="graph-node37" transform="translate(134.52337860814688,328.83275090010204)"><circle class="outline" cx="0" cy="0" r="25" fill="#C990C0" stroke="#b261a5" stroke-width="2px"/><text class="caption" text-anchor="middle" pointer-events="none" x="0" y="0" font-size="10px" fill="#FFFFFF" font-family="sans-serif"> Jerry</text><text class="caption" text-anchor="middle" pointer-events="none" x="0" y="10" font-size="10px" fill="#FFFFFF" font-family="sans-serif"> Maguire</text></g><g class="node" aria-label="graph-node5" transform="translate(202.16453070334813,118.0990973651978)"><circle class="outline" cx="0" cy="0" r="25" fill="#F79767" stroke="#f36924" stroke-width="2px"/><text class="caption" text-anchor="middle" pointer-events="none" x="0" y="0" font-size="10px" fill="#FFFFFF" font-family="sans-serif"> Andy</text><text class="caption" text-anchor="middle" pointer-events="none" x="0" y="10" font-size="10px" fill="#FFFFFF" font-family="sans-serif"> Wach…</text></g><g class="node" aria-label="graph-node119" transform="translate(338.8898984884167,77.5909802421299)"><circle class="outline" cx="0" cy="0" r="25" fill="#C990C0" stroke="#b261a5" stroke-width="2px"/><text class="caption" text-anchor="middle" pointer-events="none" x="0" y="0" font-size="10px" fill="#FFFFFF" font-family="sans-serif"> Speed</text><text class="caption" text-anchor="middle" pointer-events="none" x="0" y="10" font-size="10px" fill="#FFFFFF" font-family="sans-serif"> Racer</text></g><g class="node" aria-label="graph-node6" transform="translate(264.2793330140363,-44.17390203443331)"><circle class="outline" cx="0" cy="0" r="25" fill="#F79767" stroke="#f36924" stroke-width="2px"/><text class="caption" text-anchor="middle" pointer-events="none" x="0" y="0" font-size="10px" fill="#FFFFFF" font-family="sans-serif"> Lana</text><text class="caption" text-anchor="middle" pointer-events="none" x="0" y="10" font-size="10px" fill="#FFFFFF" font-family="sans-serif"> Wach…</text></g><g class="node" aria-label="graph-node154" transform="translate(227.56428808202335,-242.57981541269302)"><circle class="outline" cx="0" cy="0" r="25" fill="#F79767" stroke="#f36924" stroke-width="2px"/><text class="caption" text-anchor="middle" pointer-events="none" x="0" y="0" font-size="10px" fill="#FFFFFF" font-family="sans-serif"> Nancy</text><text class="caption" text-anchor="middle" pointer-events="none" x="0" y="10" font-size="10px" fill="#FFFFFF" font-family="sans-serif"> Meyers</text></g><g class="node" aria-label="graph-node152" transform="translate(99.1742122248086,-180.50770018686893)"><circle class="outline" cx="0" cy="0" r="25" fill="#C990C0" stroke="#b261a5" stroke-width="2px"/><text class="caption" text-anchor="middle" pointer-events="none" x="0" y="5" font-size="10px" fill="#FFFFFF" font-family="sans-serif"> Somethi…</text></g><g class="node" aria-label="graph-node214" transform="translate(-17.54454399904755,-346.9822052018507)"><circle class="outline" cx="0" cy="0" r="25" fill="#F79767" stroke="#f36924" stroke-width="2px"/><text class="caption" text-anchor="middle" pointer-events="none" x="0" y="0" font-size="10px" fill="#FFFFFF" font-family="sans-serif"> Cameron</text><text class="caption" text-anchor="middle" pointer-events="none" x="0" y="10" font-size="10px" fill="#FFFFFF" font-family="sans-serif"> Crowe</text></g><g class="node" aria-label="graph-node206" transform="translate(-121.75316227030768,-250.90436353154269)"><circle class="outline" cx="0" cy="0" r="25" fill="#C990C0" stroke="#b261a5" stroke-width="2px"/><text class="caption" text-anchor="middle" pointer-events="none" x="0" y="0" font-size="10px" fill="#FFFFFF" font-family="sans-serif"> Jerry</text><text class="caption" text-anchor="middle" pointer-events="none" x="0" y="10" font-size="10px" fill="#FFFFFF" font-family="sans-serif"> Maguire</text></g><g class="node" aria-label="graph-node174" transform="translate(-265.347773742809,-145.68221253883988)"><circle class="outline" cx="0" cy="0" r="25" fill="#F79767" stroke="#f36924" stroke-width="2px"/><text class="caption" text-anchor="middle" pointer-events="none" x="0" y="0" font-size="10px" fill="#FFFFFF" font-family="sans-serif"> Lilly</text><text class="caption" text-anchor="middle" pointer-events="none" x="0" y="10" font-size="10px" fill="#FFFFFF" font-family="sans-serif"> Wach…</text></g><g class="node" aria-label="graph-node290" transform="translate(-329.00018380272326,-19.116010591630573)"><circle class="outline" cx="0" cy="0" r="25" fill="#C990C0" stroke="#b261a5" stroke-width="2px"/><text class="caption" text-anchor="middle" pointer-events="none" x="0" y="0" font-size="10px" fill="#FFFFFF" font-family="sans-serif"> Speed</text><text class="caption" text-anchor="middle" pointer-events="none" x="0" y="10" font-size="10px" fill="#FFFFFF" font-family="sans-serif"> Racer</text></g><g class="node" aria-label="graph-node175" transform="translate(-309.0108259195886,121.65618588677447)"><circle class="outline" cx="0" cy="0" r="25" fill="#F79767" stroke="#f36924" stroke-width="2px"/><text class="caption" text-anchor="middle" pointer-events="none" x="0" y="0" font-size="10px" fill="#FFFFFF" font-family="sans-serif"> Lana</text><text class="caption" text-anchor="middle" pointer-events="none" x="0" y="10" font-size="10px" fill="#FFFFFF" font-family="sans-serif"> Wach…</text></g><g class="node" aria-label="graph-node325" transform="translate(-91.06951992117091,99.47628216443066)"><circle class="outline" cx="0" cy="0" r="25" fill="#F79767" stroke="#f36924" stroke-width="2px"/><text class="caption" text-anchor="middle" pointer-events="none" x="0" y="0" font-size="10px" fill="#FFFFFF" font-family="sans-serif"> Nancy</text><text class="caption" text-anchor="middle" pointer-events="none" x="0" y="10" font-size="10px" fill="#FFFFFF" font-family="sans-serif"> Meyers</text></g><g class="node" aria-label="graph-node323" transform="translate(-145.80532326183447,233.05624973399514)"><circle class="outline" cx="0" cy="0" r="25" fill="#C990C0" stroke="#b261a5" stroke-width="2px"/><text class="caption" text-anchor="middle" pointer-events="none" x="0" y="5" font-size="10px" fill="#FFFFFF" font-family="sans-serif"> Somethi…</text></g></g></svg>